<svg width="293" height="293" viewBox="0 0 293 293" fill="none" xmlns="http://www.w3.org/2000/svg">
<path d="M104.767 12.3627C113.438 14.4078 122.57 12.4668 129.66 7.07143C139.61 -0.500263 153.39 -0.500263 163.34 7.07143C170.43 12.4668 179.562 14.4078 188.233 12.3627C200.403 9.49262 212.991 15.0974 219.002 26.0616C223.284 33.8743 230.837 39.3617 239.591 41.0204C251.875 43.3482 261.096 53.5888 262.127 66.0495C262.862 74.9286 267.529 83.0136 274.852 88.0894C285.128 95.2126 289.386 108.318 285.259 120.121C282.319 128.531 283.295 137.816 287.92 145.431C294.41 156.118 292.969 169.822 284.399 178.926C278.292 185.414 275.407 194.293 276.535 203.13C278.117 215.533 271.227 227.467 259.695 232.298C251.477 235.741 245.23 242.678 242.666 251.211C239.066 263.185 227.918 271.285 215.418 271.007C206.511 270.81 197.982 274.607 192.169 281.359C184.01 290.834 170.532 293.699 159.225 288.361C151.168 284.558 141.832 284.558 133.775 288.361C122.468 293.699 108.99 290.834 100.831 281.359C95.0179 274.607 86.4893 270.81 77.582 271.007C65.0817 271.285 53.9335 263.185 50.3344 251.211C47.7697 242.678 41.5228 235.741 33.3053 232.298C21.773 227.467 14.883 215.533 16.4653 203.13C17.5928 194.293 14.7079 185.414 8.60097 178.926C0.0307055 169.822 -1.4097 156.118 5.08047 145.431C9.70517 137.816 10.681 128.531 7.74067 120.121C3.61426 108.318 7.87251 95.2126 18.1483 88.0894C25.4706 83.0136 30.1385 74.9286 30.8731 66.0495C31.9041 53.5888 41.1247 43.3482 53.4094 41.0204C62.1631 39.3617 69.7159 33.8743 73.9985 26.0616C80.0086 15.0974 92.5972 9.49262 104.767 12.3627Z" fill="#F6D308" stroke="black" stroke-width="2"/>
</svg>
